<svg width="512" height="338" viewBox="0 0 512 338" fill="none" xmlns="http://www.w3.org/2000/svg">
<rect width="512" height="338" rx="38" fill="#F5F5F5"/>
<rect width="512" height="26" fill="#FF4B55"/>
<rect y="52" width="512" height="26" fill="#FF4B55"/>
<rect y="104" width="512" height="26" fill="#FF4B55"/>
<rect y="156" width="512" height="26" fill="#FF4B55"/>
<rect y="208" width="512" height="26" fill="#FF4B55"/>
<rect y="260" width="512" height="26" fill="#FF4B55"/>
<rect y="312" width="512" height="26" fill="#FF4B55"/>
<path d="M0 38C0 17.0132 17.0132 0 38 0H228C233.523 0 238 4.47715 238 10V172C238 177.523 233.523 182 228 182H10C4.47715 182 0 177.523 0 172V38Z" fill="#41479B"/>
<path d="M23 141L25.2451 147.91H32.5106L26.6327 152.18L28.8779 159.09L23 154.82L17.1221 159.09L19.3673 152.18L13.4894 147.91H20.7549L23 141Z" fill="white"/>
<path d="M71 141L73.2451 147.91H80.5106L74.6327 152.18L76.8779 159.09L71 154.82L65.1221 159.09L67.3673 152.18L61.4894 147.91H68.7549L71 141Z" fill="white"/>
<path d="M119 141L121.245 147.91H128.511L122.633 152.18L124.878 159.09L119 154.82L113.122 159.09L115.367 152.18L109.489 147.91H116.755L119 141Z" fill="white"/>
<path d="M167 141L169.245 147.91H176.511L170.633 152.18L172.878 159.09L167 154.82L161.122 159.09L163.367 152.18L157.489 147.91H164.755L167 141Z" fill="white"/>
<path d="M215 141L217.245 147.91H224.511L218.633 152.18L220.878 159.09L215 154.82L209.122 159.09L211.367 152.18L205.489 147.91H212.755L215 141Z" fill="white"/>
<path d="M23 111L25.2451 117.91H32.5106L26.6327 122.18L28.8779 129.09L23 124.82L17.1221 129.09L19.3673 122.18L13.4894 117.91H20.7549L23 111Z" fill="white"/>
<path d="M71 111L73.2451 117.91H80.5106L74.6327 122.18L76.8779 129.09L71 124.82L65.1221 129.09L67.3673 122.18L61.4894 117.91H68.7549L71 111Z" fill="white"/>
<path d="M119 111L121.245 117.91H128.511L122.633 122.18L124.878 129.09L119 124.82L113.122 129.09L115.367 122.18L109.489 117.91H116.755L119 111Z" fill="white"/>
<path d="M167 111L169.245 117.91H176.511L170.633 122.18L172.878 129.09L167 124.82L161.122 129.09L163.367 122.18L157.489 117.91H164.755L167 111Z" fill="white"/>
<path d="M215 111L217.245 117.91H224.511L218.633 122.18L220.878 129.09L215 124.82L209.122 129.09L211.367 122.18L205.489 117.91H212.755L215 111Z" fill="white"/>
<path d="M23 81L25.2451 87.9098H32.5106L26.6327 92.1803L28.8779 99.0902L23 94.8197L17.1221 99.0902L19.3673 92.1803L13.4894 87.9098H20.7549L23 81Z" fill="white"/>
<path d="M71 81L73.2451 87.9098H80.5106L74.6327 92.1803L76.8779 99.0902L71 94.8197L65.1221 99.0902L67.3673 92.1803L61.4894 87.9098H68.7549L71 81Z" fill="white"/>
<path d="M119 81L121.245 87.9098H128.511L122.633 92.1803L124.878 99.0902L119 94.8197L113.122 99.0902L115.367 92.1803L109.489 87.9098H116.755L119 81Z" fill="white"/>
<path d="M167 81L169.245 87.9098H176.511L170.633 92.1803L172.878 99.0902L167 94.8197L161.122 99.0902L163.367 92.1803L157.489 87.9098H164.755L167 81Z" fill="white"/>
<path d="M215 81L217.245 87.9098H224.511L218.633 92.1803L220.878 99.0902L215 94.8197L209.122 99.0902L211.367 92.1803L205.489 87.9098H212.755L215 81Z" fill="white"/>
<path d="M23 51L25.2451 57.9098H32.5106L26.6327 62.1803L28.8779 69.0902L23 64.8197L17.1221 69.0902L19.3673 62.1803L13.4894 57.9098H20.7549L23 51Z" fill="white"/>
<path d="M71 51L73.2451 57.9098H80.5106L74.6327 62.1803L76.8779 69.0902L71 64.8197L65.1221 69.0902L67.3673 62.1803L61.4894 57.9098H68.7549L71 51Z" fill="white"/>
<path d="M119 51L121.245 57.9098H128.511L122.633 62.1803L124.878 69.0902L119 64.8197L113.122 69.0902L115.367 62.1803L109.489 57.9098H116.755L119 51Z" fill="white"/>
<path d="M167 51L169.245 57.9098H176.511L170.633 62.1803L172.878 69.0902L167 64.8197L161.122 69.0902L163.367 62.1803L157.489 57.9098H164.755L167 51Z" fill="white"/>
<path d="M215 51L217.245 57.9098H224.511L218.633 62.1803L220.878 69.0902L215 64.8197L209.122 69.0902L211.367 62.1803L205.489 57.9098H212.755L215 51Z" fill="white"/>
<path d="M23 21L25.2451 27.9098H32.5106L26.6327 32.1803L28.8779 39.0902L23 34.8197L17.1221 39.0902L19.3673 32.1803L13.4894 27.9098H20.7549L23 21Z" fill="white"/>
<path d="M71 21L73.2451 27.9098H80.5106L74.6327 32.1803L76.8779 39.0902L71 34.8197L65.1221 39.0902L67.3673 32.1803L61.4894 27.9098H68.7549L71 21Z" fill="white"/>
<path d="M119 21L121.245 27.9098H128.511L122.633 32.1803L124.878 39.0902L119 34.8197L113.122 39.0902L115.367 32.1803L109.489 27.9098H116.755L119 21Z" fill="white"/>
<path d="M167 21L169.245 27.9098H176.511L170.633 32.1803L172.878 39.0902L167 34.8197L161.122 39.0902L163.367 32.1803L157.489 27.9098H164.755L167 21Z" fill="white"/>
<path d="M215 21L217.245 27.9098H224.511L218.633 32.1803L220.878 39.0902L215 34.8197L209.122 39.0902L211.367 32.1803L205.489 27.9098H212.755L215 21Z" fill="white"/>
<path d="M48.0621 126L50.3212 132.91H57.6317L51.7174 137.18L53.9765 144.09L48.0621 139.82L42.1478 144.09L44.4068 137.18L38.4925 132.91H45.803L48.0621 126Z" fill="white"/>
<path d="M189.938 126L192.197 132.91H199.508L193.593 137.18L195.852 144.09L189.938 139.82L184.024 144.09L186.283 137.18L180.368 132.91H187.679L189.938 126Z" fill="white"/>
<path d="M142.646 126L144.905 132.91H152.216L146.301 137.18L148.56 144.09L142.646 139.82L136.732 144.09L138.991 137.18L133.076 132.91H140.387L142.646 126Z" fill="white"/>
<path d="M95.354 126L97.6131 132.91H104.924L99.0093 137.18L101.268 144.09L95.354 139.82L89.4397 144.09L91.6988 137.18L85.7844 132.91H93.095L95.354 126Z" fill="white"/>
<path d="M48.0621 96L50.3212 102.91H57.6317L51.7174 107.18L53.9765 114.09L48.0621 109.82L42.1478 114.09L44.4068 107.18L38.4925 102.91H45.803L48.0621 96Z" fill="white"/>
<path d="M189.938 96L192.197 102.91H199.508L193.593 107.18L195.852 114.09L189.938 109.82L184.024 114.09L186.283 107.18L180.368 102.91H187.679L189.938 96Z" fill="white"/>
<path d="M142.646 96L144.905 102.91H152.216L146.301 107.18L148.56 114.09L142.646 109.82L136.732 114.09L138.991 107.18L133.076 102.91H140.387L142.646 96Z" fill="white"/>
<path d="M95.354 96L97.6131 102.91H104.924L99.0093 107.18L101.268 114.09L95.354 109.82L89.4397 114.09L91.6988 107.18L85.7844 102.91H93.095L95.354 96Z" fill="white"/>
<path d="M48.0621 66L50.3212 72.9098H57.6317L51.7174 77.1803L53.9765 84.0902L48.0621 79.8197L42.1478 84.0902L44.4068 77.1803L38.4925 72.9098H45.803L48.0621 66Z" fill="white"/>
<path d="M189.938 66L192.197 72.9098H199.508L193.593 77.1803L195.852 84.0902L189.938 79.8197L184.024 84.0902L186.283 77.1803L180.368 72.9098H187.679L189.938 66Z" fill="white"/>
<path d="M142.646 66L144.905 72.9098H152.216L146.301 77.1803L148.56 84.0902L142.646 79.8197L136.732 84.0902L138.991 77.1803L133.076 72.9098H140.387L142.646 66Z" fill="white"/>
<path d="M95.354 66L97.6131 72.9098H104.924L99.0093 77.1803L101.268 84.0902L95.354 79.8197L89.4397 84.0902L91.6988 77.1803L85.7844 72.9098H93.095L95.354 66Z" fill="white"/>
<path d="M48.0621 36L50.3212 42.9098H57.6317L51.7174 47.1803L53.9765 54.0902L48.0621 49.8197L42.1478 54.0902L44.4068 47.1803L38.4925 42.9098H45.803L48.0621 36Z" fill="white"/>
<path d="M189.938 36L192.197 42.9098H199.508L193.593 47.1803L195.852 54.0902L189.938 49.8197L184.024 54.0902L186.283 47.1803L180.368 42.9098H187.679L189.938 36Z" fill="white"/>
<path d="M142.646 36L144.905 42.9098H152.216L146.301 47.1803L148.56 54.0902L142.646 49.8197L136.732 54.0902L138.991 47.1803L133.076 42.9098H140.387L142.646 36Z" fill="white"/>
<path d="M95.354 36L97.6131 42.9098H104.924L99.0093 47.1803L101.268 54.0902L95.354 49.8197L89.4397 54.0902L91.6988 47.1803L85.7844 42.9098H93.095L95.354 36Z" fill="white"/>
</svg>
